<?xml version="1.0" encoding="UTF-8" standalone="no"?>
<svg
   width="200"
   height="200"
   version="1.1"
   id="svg8"
   sodipodi:docname="viaje_mistica.svg"
   inkscape:version="1.1.2 (0a00cf5339, 2022-02-04)"
   xmlns:inkscape="http://www.inkscape.org/namespaces/inkscape"
   xmlns:sodipodi="http://sodipodi.sourceforge.net/DTD/sodipodi-0.dtd"
   xmlns="http://www.w3.org/2000/svg"
   xmlns:svg="http://www.w3.org/2000/svg">
  <defs
     id="defs12" />
  <sodipodi:namedview
     id="namedview10"
     pagecolor="#ffffff"
     bordercolor="#666666"
     borderopacity="1.0"
     inkscape:pageshadow="2"
     inkscape:pageopacity="0.0"
     inkscape:pagecheckerboard="0"
     showgrid="false"
     inkscape:zoom="3.255"
     inkscape:cx="98.156682"
     inkscape:cy="99.078341"
     inkscape:window-width="1920"
     inkscape:window-height="999"
     inkscape:window-x="0"
     inkscape:window-y="0"
     inkscape:window-maximized="1"
     inkscape:current-layer="svg8" />
  <rect
     width="200"
     height="200"
     fill="#2ecc40"
     id="rect2"
     x="0"
     y="0"
     rx="30"
     ry="30" />
  <polygon
     points="40,198 190,78 10,78 160,198 100,10 "
     fill="#ffdc00"
     id="polygon4"
     transform="matrix(0.42560147,0,0,0.37874267,5.7439853,6.2125733)" />
  <text
     x="50%"
     y="180"
     font-family="Verdana"
     font-size="20px"
     fill="#ffffff"
     text-anchor="middle"
     id="text6">Viaje  Mística</text>
  <path
     id="path7049"
     style="fill:#8486d8;fill-opacity:1;stroke:none;stroke-width:2.33389;stroke-linecap:square;stroke-miterlimit:2.2;paint-order:markers stroke fill"
     d="m 101.42235,99.80805 a 18.311364,19.608684 74.584537 0 1 9.21622,11.07368 18.311364,19.608684 74.584537 0 1 -14.035828,22.86456 18.311364,19.608684 74.584537 0 1 -11.991977,-0.33907 20.414645,21.067612 74.584537 0 0 21.714555,6.53831 20.414645,21.067612 74.584537 0 0 14.88263,-25.28105 20.414645,21.067612 74.584537 0 0 -19.7856,-14.85643 z" />
  <ellipse
     style="fill:#000080;fill-opacity:1;stroke:none;stroke-width:3.5478;stroke-linecap:square;stroke-miterlimit:2.2;stroke-opacity:1;paint-order:markers stroke fill"
     id="path9908"
     cx="158.60152"
     cy="51.739323"
     rx="24.570646"
     ry="23.148211" />
</svg>
